<mxfile host="65bd71144e">
    <diagram id="WZ4UyvNV6Fdmu5M1AsbS" name="第 1 页">
        <mxGraphModel dx="918" dy="596" grid="1" gridSize="10" guides="1" tooltips="1" connect="1" arrows="1" fold="1" page="1" pageScale="1" pageWidth="827" pageHeight="1169" math="0" shadow="0">
            <root>
                <mxCell id="0"/>
                <mxCell id="1" parent="0"/>
                <mxCell id="3" value="rmk" style="rounded=0;whiteSpace=wrap;html=1;hachureGap=4;fontFamily=Comic Sans MS;fontSize=20;fillColor=#dae8fc;strokeColor=#6c8ebf;shadow=1;sketch=1;curveFitting=1;jiggle=2;labelBackgroundColor=none;labelBorderColor=none;" parent="1" vertex="1">
                    <mxGeometry x="100" y="100" width="120" height="60" as="geometry"/>
                </mxCell>
                <mxCell id="7" style="edgeStyle=none;hachureGap=4;html=1;exitX=0.5;exitY=0;exitDx=0;exitDy=0;entryX=0.5;entryY=1;entryDx=0;entryDy=0;fontFamily=Comic Sans MS;fontSize=16;fillColor=#dae8fc;strokeColor=#6c8ebf;shadow=1;sketch=1;curveFitting=1;jiggle=2;labelBackgroundColor=none;labelBorderColor=none;" parent="1" source="4" target="3" edge="1">
                    <mxGeometry relative="1" as="geometry"/>
                </mxCell>
                <mxCell id="4" value="rmk-macro" style="rounded=0;whiteSpace=wrap;html=1;hachureGap=4;fontFamily=Comic Sans MS;fontSize=20;fillColor=#dae8fc;strokeColor=#6c8ebf;shadow=1;labelBackgroundColor=none;labelBorderColor=none;glass=0;sketch=1;curveFitting=1;jiggle=2;" parent="1" vertex="1">
                    <mxGeometry x="294" y="240" width="120" height="60" as="geometry"/>
                </mxCell>
                <mxCell id="6" style="edgeStyle=none;hachureGap=4;html=1;exitX=0.5;exitY=0;exitDx=0;exitDy=0;entryX=0.5;entryY=1;entryDx=0;entryDy=0;fontFamily=Comic Sans MS;fontSize=16;fillColor=#dae8fc;strokeColor=#6c8ebf;shadow=1;sketch=1;curveFitting=1;jiggle=2;labelBackgroundColor=none;labelBorderColor=none;" parent="1" source="5" target="4" edge="1">
                    <mxGeometry relative="1" as="geometry"/>
                </mxCell>
                <mxCell id="8" style="edgeStyle=none;hachureGap=4;html=1;exitX=0.5;exitY=0;exitDx=0;exitDy=0;fontFamily=Comic Sans MS;fontSize=16;fillColor=#dae8fc;strokeColor=#6c8ebf;shadow=1;sketch=1;curveFitting=1;jiggle=2;labelBackgroundColor=none;labelBorderColor=none;" parent="1" source="5" edge="1">
                    <mxGeometry relative="1" as="geometry">
                        <mxPoint x="160" y="160" as="targetPoint"/>
                    </mxGeometry>
                </mxCell>
                <mxCell id="5" value="rmk-config" style="rounded=0;whiteSpace=wrap;html=1;hachureGap=4;fontFamily=Comic Sans MS;fontSize=20;fillColor=#dae8fc;strokeColor=#6c8ebf;shadow=1;sketch=1;curveFitting=1;jiggle=2;labelBackgroundColor=none;labelBorderColor=none;" parent="1" vertex="1">
                    <mxGeometry x="90" y="420" width="120" height="60" as="geometry"/>
                </mxCell>
            </root>
        </mxGraphModel>
    </diagram>
</mxfile>